<mxfile host="app.diagrams.net" modified="2024-01-10T08:51:21.399Z" agent="Mozilla/5.0 (Macintosh; Intel Mac OS X 10_15_7) AppleWebKit/537.36 (KHTML, like Gecko) Chrome/120.0.0.0 Safari/537.36" etag="y65E3tC6LUORf9Oqyr-O" version="22.1.16" type="github">
  <diagram name="Page-1" id="qxffikaDEZeMn734_tKv">
    <mxGraphModel dx="954" dy="606" grid="1" gridSize="10" guides="1" tooltips="1" connect="1" arrows="1" fold="1" page="1" pageScale="1" pageWidth="850" pageHeight="1100" math="0" shadow="0">
      <root>
        <mxCell id="0" />
        <mxCell id="1" parent="0" />
        <mxCell id="oyZoGBa4WGomVmZSgcjT-1" value="Shared Database" style="image;html=1;image=img/lib/clip_art/computers/Database_128x128.png" vertex="1" parent="1">
          <mxGeometry x="610" y="190" width="50" height="50" as="geometry" />
        </mxCell>
        <mxCell id="oyZoGBa4WGomVmZSgcjT-2" value="API Manager DB" style="image;html=1;image=img/lib/clip_art/computers/Database_128x128.png" vertex="1" parent="1">
          <mxGeometry x="610" y="300" width="50" height="50" as="geometry" />
        </mxCell>
        <mxCell id="oyZoGBa4WGomVmZSgcjT-5" style="edgeStyle=orthogonalEdgeStyle;rounded=0;orthogonalLoop=1;jettySize=auto;html=1;exitX=1;exitY=0.25;exitDx=0;exitDy=0;entryX=0;entryY=0.5;entryDx=0;entryDy=0;" edge="1" parent="1" source="oyZoGBa4WGomVmZSgcjT-3" target="oyZoGBa4WGomVmZSgcjT-1">
          <mxGeometry relative="1" as="geometry" />
        </mxCell>
        <mxCell id="oyZoGBa4WGomVmZSgcjT-6" style="edgeStyle=orthogonalEdgeStyle;rounded=0;orthogonalLoop=1;jettySize=auto;html=1;exitX=1;exitY=0.75;exitDx=0;exitDy=0;entryX=0;entryY=0.5;entryDx=0;entryDy=0;" edge="1" parent="1" source="oyZoGBa4WGomVmZSgcjT-3" target="oyZoGBa4WGomVmZSgcjT-2">
          <mxGeometry relative="1" as="geometry" />
        </mxCell>
        <mxCell id="oyZoGBa4WGomVmZSgcjT-3" value="" style="rounded=1;whiteSpace=wrap;html=1;dashed=1;fillOpacity=0;strokeOpacity=100;" vertex="1" parent="1">
          <mxGeometry x="380" y="220" width="110" height="120" as="geometry" />
        </mxCell>
        <mxCell id="oyZoGBa4WGomVmZSgcjT-4" value="WSO2 &lt;br&gt;API-M" style="sketch=0;points=[[0,0,0],[0.25,0,0],[0.5,0,0],[0.75,0,0],[1,0,0],[0,1,0],[0.25,1,0],[0.5,1,0],[0.75,1,0],[1,1,0],[0,0.25,0],[0,0.5,0],[0,0.75,0],[1,0.25,0],[1,0.5,0],[1,0.75,0]];outlineConnect=0;fontColor=#232F3E;fillColor=#8C4FFF;strokeColor=#ffffff;dashed=0;verticalLabelPosition=bottom;verticalAlign=top;align=center;html=1;fontSize=12;fontStyle=0;aspect=fixed;shape=mxgraph.aws4.resourceIcon;resIcon=mxgraph.aws4.api_gateway;" vertex="1" parent="1">
          <mxGeometry x="410" y="240" width="60" height="60" as="geometry" />
        </mxCell>
        <mxCell id="oyZoGBa4WGomVmZSgcjT-8" style="edgeStyle=orthogonalEdgeStyle;rounded=0;orthogonalLoop=1;jettySize=auto;html=1;" edge="1" parent="1" source="oyZoGBa4WGomVmZSgcjT-7" target="oyZoGBa4WGomVmZSgcjT-3">
          <mxGeometry relative="1" as="geometry" />
        </mxCell>
        <mxCell id="oyZoGBa4WGomVmZSgcjT-7" value="Publisher" style="points=[[0.03,0.03,0],[0.5,0,0],[0.97,0.03,0],[1,0.4,0],[0.97,0.745,0],[0.5,1,0],[0.03,0.745,0],[0,0.4,0]];verticalLabelPosition=bottom;sketch=0;html=1;verticalAlign=top;aspect=fixed;align=center;pointerEvents=1;shape=mxgraph.cisco19.workstation;fillColor=#005073;strokeColor=none;" vertex="1" parent="1">
          <mxGeometry x="220" y="252" width="70" height="56" as="geometry" />
        </mxCell>
        <mxCell id="oyZoGBa4WGomVmZSgcjT-9" value="API Team" style="shape=umlActor;verticalLabelPosition=bottom;verticalAlign=top;html=1;outlineConnect=0;" vertex="1" parent="1">
          <mxGeometry x="170" y="248" width="30" height="60" as="geometry" />
        </mxCell>
      </root>
    </mxGraphModel>
  </diagram>
</mxfile>
